<?xml version="1.0" encoding="UTF-8" standalone="no"?>
<!-- Created with Inkscape (http://www.inkscape.org/) -->

<svg
   xmlns:dc="http://purl.org/dc/elements/1.1/"
   xmlns:cc="http://creativecommons.org/ns#"
   xmlns:rdf="http://www.w3.org/1999/02/22-rdf-syntax-ns#"
   xmlns:svg="http://www.w3.org/2000/svg"
   xmlns="http://www.w3.org/2000/svg"
   xmlns:xlink="http://www.w3.org/1999/xlink"
   xmlns:sodipodi="http://sodipodi.sourceforge.net/DTD/sodipodi-0.dtd"
   xmlns:inkscape="http://www.inkscape.org/namespaces/inkscape"
   width="90.119995mm"
   height="82.209465mm"
   viewBox="0 0 90.119995 82.209465"
   version="1.1"
   id="svg3413"
   inkscape:version="0.92.4 (5da689c313, 2019-01-14)"
   sodipodi:docname="GaggiuinoFrontPanel4.svg">
  <defs
     id="defs3407">
    <path
       d="m 91.8,284.4 q 1.45,0.4 2.5,-0.3 1.2,-0.75 1.5,-2.1 l 1.25,-5.45 q 0.3,-0.85 1,-1.2 0.7,-0.45 1.55,-0.25 0.8,0.35 1.25,1.05 0.4,0.85 0.25,1.65 -0.25,0.85 -0.95,1.35 -0.7,0.4 -1.55,0.1 l -0.5,-0.1 q -0.1,-0.1 -0.45,0.05 -0.2,0.1 -0.25,0.35 -0.1,0.35 0.05,0.5 0.2,0.3 0.35,0.35 l 0.55,0.15 q 1.2,0.4 2.45,-0.3 1.15,-0.65 1.55,-2.05 0.25,-1.5 -0.45,-2.65 -0.38496,-0.74023 -1.025,-1.2 m -9.275,4.775 q 0.589063,-0.36875 1.5,-0.225 l 0.45,0.2 q 0.25,0.1 0.4,-0.05 0.25,-0.05 0.35,-0.4 0.05,-0.25 -0.1,-0.5 -0.15,-0.3 -0.35,-0.35 l -0.45,-0.1 q -0.912305,-0.31582 -1.8,-0.075 m 5.55,-3.275 q -0.982617,0.64707 -1.25,1.85 l -1.3,5.45 q -0.15,0.8 -0.95,1.3 -0.7,0.4 -1.6,0.15 -0.24082,-0.0902 -0.45,-0.225 m 0,11.85 q 0.342578,-0.0871 0.65,-0.275 l 2.05,-1.2 q 1.15,1.4 2.7,1.8 1.6,0.55 3.15,0.1 l 0.3,-0.15 6.75,-4 q 0.92305,-0.85938 1.4,-2.025 m -17,3.775 1.55,-1 -1.05,-1.85 -0.5,0.275 m 17,4.65 q -0.85723,0.675 -1.2,1.875 l -1.25,5.3 q -0.15,0.95 -0.95,1.4 -0.65,0.4 -1.5,0.15 -0.85,-0.25 -1.3,-1 -0.45,-0.85 -0.25,-1.65 0.25,-0.85 0.95,-1.3 0.75,-0.4 1.55,-0.2 l 0.45,0.15 q 0.25,0.05 0.55,-0.1 0.15,-0.1 0.25,-0.35 0,-0.35 -0.1,-0.45 -0.1,-0.3 -0.4,-0.4 l -0.45,-0.1 q -1.35,-0.45 -2.5,0.25 -1.2,0.75 -1.5,2.1 -0.35,1.35 0.35,2.6 0.7,1.3 2.1,1.75 1.3,0.4 2.5,-0.35 1.1,-0.6 1.5,-2 l 1.2,-5.225 m 0,-12.825 q -0.16914,-0.38262 -0.4,-0.75 l -2.3,-4.1 -14.3,8.375 M 143.525,276.8 q 0.0969,-0.10918 0.125,-0.25 0,-0.35 -0.1,-0.55 -0.2,-0.2 -0.4,-0.25 l -0.45,-0.2 q -1.4,-0.4 -2.45,0.3 -0.66289,0.39766 -1.05,0.95 m 11.125,-2.45 q 0.27598,0.62656 0.075,1.35 -0.18828,0.67754 -0.625,1.1 m 1.625,0 q 0.13047,-0.3248 0.2,-0.7 0.25234,-0.91484 0.05,-1.75 m -6.5,0 -0.575,2.45 m 1.35,0 0.525,-2.25 M 161,293.7 q 0.45195,0.30312 0.75,0.8 0.4,0.9 0.2,1.7 -0.15,0.9 -0.9,1.25 M 141.525,276.8 q 0.24609,-0.04 0.5,0 M 161,298.925 q 0.38203,-0.11035 0.75,-0.325 1.1,-0.65 1.5,-2.05 0.3,-1.4 -0.4,-2.7 -0.6791,-1.13184 -1.85,-1.575 m -19.85,32.575 q -0.19883,-0.17305 -0.35,-0.4 -0.4,-0.6 -0.15,-1.3 0.15,-0.7 0.75,-1 0.5,-0.35 1.25,-0.2 l 0.4,0.1 q 0.15,0.15 0.3,0 0.25,-0.15 0.25,-0.3 0.05,-0.1 -0.05,-0.4 -0.15,-0.25 -0.3,-0.3 l -0.4,-0.15 q -1,-0.3 -2,0.25 -0.9,0.6 -1.2,1.7 -0.12773,0.5877 -0.025,1.125 m 3.975,2.125 q 1,-0.55 1.3,-1.7 l 0.9,-4.3 q 0.25,-0.75 0.8,-1.05 0.55,-0.35 1.2,-0.15 0.65,0.2 1.05,0.85 0.35,0.65 0.2,1.3 -0.15,0.6 -0.7,1.1 -0.7,0.3 -1.3,0.1 l -0.4,-0.15 q -0.1,-0.05 -0.35,0.05 -0.4,0.35 -0.15,0.75 0.05,0.1 0.3,0.2 l 0.4,0.15 q 1.05,0.3 1.9,-0.25 0.9,-0.5 1.3,-1.65 0.25,-1.15 -0.35,-2.15 -0.65,-1.05 -1.65,-1.3 -1.05,-0.35 -2,0.2 -1,0.6 -1.2,1.7 l -1,4.3 q -0.2,0.75 -0.75,1.05 -0.46563,0.32598 -1.15,0.175 m 19.1,-11.875 0.35,-0.1 6.5,-3.8 0.15,-0.25 q 1.55,-1.25 1.85,-3.35 0.3,-2.05 -0.85,-3.95 l -2.2,-4.05 -5.85,3.425 m -37.05,15.675 q 0.4,0.75 0.25,1.7 -0.15,0.9 -0.9,1.25 -0.8,0.45 -1.6,0.15 l -0.45,-0.1 q -0.3,-0.1 -0.45,0.05 -0.2,0.1 -0.25,0.4 -0.1,0.15 0,0.5 0.25,0.25 0.4,0.25 l 0.45,0.2 q 1.35,0.4 2.55,-0.3 1.2,-0.65 1.5,-2.05 0.23672,-1.06563 -0.15,-2.1 m 29.45,8.75 -1.9,-3.25 -7.8,4.625 m 6.1,16.825 q 0.024,0.68242 0.4,1.4 0.55,1.1 1.6,1.4 1.15,0.4 2,-0.25 m -7.6,-11.475 q 0.35215,-0.0445 0.7,-0.175 l 0.25,-0.1 1.5,-0.875 m 4.25,11.875 q -0.41641,0.0834 -0.85,-0.05 -0.65,-0.2 -0.95,-0.8 -0.0807,-0.14121 -0.15,-0.275 m -21.5,-21.075 -1.75,-3.1 -11.6,6.875 m -13.75,-16.975 -1.85,1.05 q -0.4,0.25 -0.4,0.65 -0.15,0.45 0,0.85 0.2,0.35 0.7,0.5 0.4,0.15 0.75,-0.1 l 1.85,-1.05 z m 4.9,-5.05 -7.65,4.5 q -1.05,0.6 -1.25,1.75 -0.3,1.15 0.3,2.25 0.65,1.05 1.8,1.35 1.05,0.35 2.05,-0.25 l 2,-1.2 q 1.1,1.35 2.75,1.85 0.18613,0.06 0.375,0.1 m 9.975,1.4 -1.25,5.5 q -0.25,0.85 -0.9,1.3 -0.8,0.4 -1.6,0.1 -0.8,-0.15 -1.25,-1 -0.45,-0.8 -0.25,-1.7 0.15,-0.75 0.95,-1.25 0.75,-0.45 1.6,-0.15 l 0.45,0.2 q 0.3,0 0.5,-0.1 0.5,-0.45 0.15,-0.95 l -0.35,-0.3 -0.5,-0.1 q -1.3,-0.45 -2.5,0.3 -1.15,0.6 -1.55,2.05 -0.3,1.35 0.4,2.65 0.75,1.25 2.05,1.65 1.3,0.45 2.55,-0.25 1.2,-0.7 1.5,-2.15 l 1.2,-5.3 q 0.0871,-0.29629 0.225,-0.55 M 91.6,313.825 92.75,313.15 92.9,313 q 1.2,-1.05 1.5,-2.7 0.2,-1.6 -0.65,-3.15 l -1.9,-3.2 -0.25,0.15 m 0,23.875 q 0.257617,0.14141 0.55,0.225 1.15,0.3 2,-0.25 1.05,-0.45 1.25,-1.65 l 0.95,-4.35 q 0.25,-0.6 0.75,-1.05 0.6,-0.3 1.25,-0.1 0.75,0.25 1.05,0.8 0.35,0.75 0.2,1.35 -0.25,0.8 -0.75,1.05 -0.5,0.3 -1.25,0.15 L 97.25,324 q -0.2,-0.05 -0.4,0.05 -0.45,0.25 -0.15,0.75 0.1,0.2 0.3,0.2 l 0.4,0.1 q 1.05,0.4 2,-0.2 0.95,-0.55 1.15,-1.65 0.3,-1.1 -0.3,-2.1 -0.5,-1.05 -1.6,-1.35 -1.05,-0.35 -2.05,0.2 -0.9,0.55 -1.2,1.7 l -1,4.3 q -0.05,0.65 -0.8,1.05 -0.55,0.3 -1.15,0.1 -0.453516,-0.11348 -0.85,-0.5 m 0,-2.4 q 0.136523,-0.13555 0.3,-0.25 0.65,-0.3 1.25,-0.15 l 0.45,0.1 q 0.15,0.15 0.3,0 0.2,-0.05 0.25,-0.35 0.05,-0.2 -0.05,-0.4 l -0.25,-0.3 -0.4,-0.05 q -0.963281,-0.30645 -1.85,0.125 m 2.5,6.95 -2.5,1.475 m 0.2,3.6 1.5,-0.9 -0.9,-1.45 -0.8,0.45 m 0,3.45 q 0.491406,-0.0135 0.95,-0.3 l 1.55,-0.975 m 25.5,0.5 q 0.26797,0.0957 0.55,0.175 0.95898,0.35957 1.9,0.3 m -28.375,16.375 q 0.427734,-0.82871 0.525,-1.825 0.35,-2 -0.7,-3.85 l -1.9,-3.35 m 14.375,6.55 -4.175,2.45 q -0.19551,0.10996 -0.35,0.25 m 15.475,0 q 0.4125,-0.72969 0.575,-1.65 0.25,-1.65 -0.6,-3.1 l -1.425,-2.425 m 38.475,7.175 0.3,-0.2 -0.75,-1.5 -1.55,0.85 -0.4,0.5 q 0,0.19883 0.025,0.35 m 5.425,-5.525 -5.8,3.425 q -0.8,0.45 -1,1.4 -0.0557,0.3707 -0.025,0.7 m -9.2,0 0.675,-0.4 0.2,-0.15 q 1.5,-1.3 1.75,-3.35 0.28008,-1.64102 -0.325,-3.175 m -15.625,7.075 -0.9,-1.65 -1.8,1.1 q -0.26875,0.13437 -0.425,0.55 m 4.875,-5.325 -5.35,3.175 q -0.95,0.6 -1.25,1.75 -0.0525,0.20156 -0.075,0.4 m 48.425,-75.95 -1,4.45 q -0.05,0.7 -0.7,1 -0.6,0.4 -1.3,0.15 -0.6,-0.2 -1,-0.85 -0.35,-0.6 -0.2,-1.3 0.25,-0.65 0.75,-1.05 0.65,-0.3 1.3,-0.1 l 0.35,0.1 q 0.1,0.05 0.35,-0.1 0.4,-0.2 0.2,-0.65 -0.1,-0.15 -0.35,-0.25 l -0.35,-0.15 q -1,-0.35 -2.05,0.25 -0.9,0.55 -1.2,1.65 -0.2,1.15 0.3,2.1 0.7,1.05 1.7,1.35 1.1,0.35 2,-0.25 0.95,-0.55 1.15,-1.65 l 1.05,-4.35 q 0.15,-0.55 0.8,-0.95 0.5,-0.35 1.25,-0.2 0.5,0.2 0.95,0.8 0.4,0.75 0.2,1.4 -0.15,0.7 -0.75,1 -0.55,0.4 -1.2,0.15 l -0.8,-0.15 -0.25,0.35 0.1,0.45 q 0.1,0.15 0.35,0.25 l 0.35,0.05 q 1.05,0.4 2,-0.2 0.95,-0.5 1.2,-1.6 0.3,-1.1 -0.3,-2.15 -0.55,-1.05 -1.7,-1.35 -0.95,-0.3 -1.95,0.25 -1.05,0.65 -1.25,1.55 z m -2.95,11 -1.45,0.85 q -0.3,0.2 -0.4,0.5 -0.05,0.35 0.1,0.7 0.15,0.3 0.5,0.4 0.4,0.1 0.65,-0.05 l 1.45,-0.9 z m 9.8,-7.475 -12,7.075 q -0.75,0.55 -1.05,1.4 -0.15,0.9 0.3,1.75 0.55,0.9 1.4,1.1 0.9,0.3 1.65,-0.15 l 1.6,-1 q 0.85,1.05 2.2,1.45 1.25,0.45 2.5,0.05 l 0.3,-0.1 3.1,-1.85 m 0,17.525 -0.45,0.275 q -0.8,0.45 -1,1.4 -0.2,0.9 0.25,1.75 0.45508,0.77363 1.2,1.05 m 0,-12.65 q -0.31992,0.42754 -0.45,1 -0.3,1.15 0.3,2.1 0.0705,0.13457 0.15,0.25 m -11.85,20.325 q 0.33301,-0.12695 0.65,-0.325 1.2,-0.65 1.5,-2 l 1.25,-5.45 q 0.15,-0.8 0.85,-1.3 0.9,-0.5 1.65,-0.2 0.75,0.3 1.2,1.05 0.45,0.85 0.25,1.65 -0.15,0.85 -0.9,1.35 -0.8,0.4 -1.5,0.1 l -0.5,-0.1 q -0.25,-0.1 -0.5,0.05 -0.1,0.05 -0.3,0.35 l 0.1,0.55 q 0.25,0.25 0.4,0.3 l 0.45,0.15 q 1.35,0.45 2.45,-0.3 1.25,-0.75 1.55,-2.1 0.3,-1.45 -0.4,-2.6 -0.6,-1.35 -2,-1.7 -1.3,-0.45 -2.55,0.25 -1.2,0.65 -1.5,2.15 l -1.25,5.35 q -0.15,0.85 -0.9,1.35 -0.75,0.35 -1.6,0.15 -0.8,-0.2 -1.25,-1.05 -0.45,-0.85 -0.25,-1.65 0.2,-0.75 0.95,-1.25 0.65,-0.4 1.55,-0.25 l 0.45,0.15 q 0.25,0.15 0.45,0 0.55,-0.3 0.2,-0.95 -0.1,-0.15 -0.35,-0.3 l -0.45,-0.1 q -1.3,-0.45 -2.55,0.2 -1.15,0.8 -1.45,2.15 -0.35,1.35 0.35,2.65 m 15.7,-11.8 q -0.1,0.4 0.05,0.65 m -2.45,21.9 2.5,-1.45 m -2.5,7.55 q 0.8,-0.45 1.6,-0.1 l 0.4,0.1 q 0.35,0.1 0.5,-0.05 m -0.15,-1.2 -0.45,-0.2 q -0.99043,-0.25684 -1.9,0.025 m -0.35,6.425 q 0.3166,0.17676 0.7,0.3 1.11152,0.29922 2.15,-0.125 m 0,-1.575 q -0.15586,0.14082 -0.35,0.25 -0.65,0.35 -1.55,0.15 -0.32969,-0.10293 -0.6,-0.3 m 2.5,-23.425 -9.775,5.75 m 7.875,24.725 -1.85,1.1 q -0.4,0.25 -0.4,0.65 -0.15,0.4 0.1,0.8 0.25,0.4 0.65,0.55 0.3,0.05 0.8,-0.1 l 1.85,-1.05 z m 1.9,-3.225 -4.6,2.725 q -0.95,0.6 -1.25,1.75 -0.3,1.15 0.3,2.2 0.0936,0.1584 0.2,0.3 m -8.55,0 1.4,-0.85 q 1.15,-1.1 1.45,-2.7 0.049,-0.53867 0,-1.05"
       id="Layer2_0_1_STROKES"
       inkscape:connector-curvature="0"
       style="fill:none;stroke:#0000ff;stroke-width:0.1;stroke-linecap:round;stroke-linejoin:round" />
    <path
       d="m 159.6,278.25 q 0.55,0.65 0.55,1.35 v 34.65 q 0,0.75 -0.55,1.3 l -0.05,0.05 q -0.45,0.45 -1.3,0.55 h -46.9 q -0.75,0 -1.3,-0.55 -0.6,-0.6 -0.6,-1.35 V 279.6 q 0,-0.75 0.6,-1.35 0.5,-0.55 1.3,-0.55 h 46.9 q 0.7,0 1.35,0.55 z m 15.15,-4.8 q 1.7,0 2.9,1.2 1.2,1.3 1.2,2.95 v 72 q 0,1.7 -1.2,2.9 -1.2,1.2 -2.9,1.2 h -79.9 q -1.7,0 -2.9,-1.2 -1.2,-1.2 -1.2,-2.9 v -72 q 0,-1.65 1.2,-2.95 1.2,-1.2 2.9,-1.2 z m -28.5,69.6 -11,6.3 q -0.2,0.15 -0.45,0.15 -0.25,0 -0.4,-0.15 l -11,-6.3 -0.35,-0.35 -0.1,-0.45 V 329.6 l 0.1,-0.45 0.35,-0.35 11,-6.3 q 0.15,-0.15 0.4,-0.15 0.25,0 0.45,0.15 l 11,6.3 q 0.3,0.3 0.3,0.35 0.1,0.15 0.1,0.45 v 12.65 q 0,0.3 -0.1,0.45 0,0.1 -0.3,0.35 z m 16.95,-20.55 11,6.3 q 0.3,0.3 0.3,0.35 l 0.15,0.45 v 12.65 l -0.15,0.45 q 0,0.1 -0.3,0.35 l -11,6.3 q -0.15,0.15 -0.45,0.15 -0.25,0 -0.4,-0.15 l -11,-6.3 -0.35,-0.35 -0.1,-0.45 V 329.6 l 0.1,-0.45 0.35,-0.35 11,-6.3 q 0.15,-0.15 0.4,-0.15 0.3,0 0.45,0.15 z m -44.95,20.55 -10.95,6.3 q -0.2,0.15 -0.45,0.15 -0.2,0 -0.45,-0.15 l -11,-6.3 Q 95.15,342.8 95.1,342.7 95,342.55 95,342.25 V 329.6 q 0,-0.3 0.1,-0.45 0.05,-0.05 0.3,-0.35 l 11,-6.3 q 0.25,-0.15 0.45,-0.15 0.25,0 0.45,0.15 l 10.95,6.3 0.35,0.35 0.1,0.45 v 12.65 l -0.1,0.45 z"
       stroke-miterlimit="4"
       id="Layer1_0_1_STROKES"
       inkscape:connector-curvature="0"
       style="fill:none;stroke:#0000ff;stroke-width:0.1;stroke-linecap:butt;stroke-linejoin:miter;stroke-miterlimit:4" />
    <path
       d="m 178.3,274.05 q -1.45,-1.45 -3.55,-1.45 h -79.9 q -2.1,0 -3.55,1.45 -1.45,1.45 -1.45,3.55 v 72 q 0,2.05 1.45,3.55 1.55,1.45 3.55,1.45 h 79.9 q 2.05,0 3.55,-1.45 1.45,-1.5 1.45,-3.55 v -72 q 0,-2.1 -1.45,-3.55 z"
       stroke-miterlimit="4"
       id="Layer0_0_1_STROKES"
       inkscape:connector-curvature="0"
       style="fill:none;stroke:#ff0000;stroke-width:0.1;stroke-linecap:butt;stroke-linejoin:miter;stroke-miterlimit:4" />
    <path
       d="m 159.25,279.6 q 0,-0.45 -0.3,-0.75 -0.35,-0.25 -0.7,-0.25 h -46.9 q -0.35,0 -0.7,0.25 -0.3,0.3 -0.3,0.75 v 34.65 q 0,0.4 0.3,0.7 0.3,0.3 0.7,0.3 h 46.9 q 0.4,0 0.7,-0.3 0.3,-0.3 0.3,-0.7 z"
       stroke-miterlimit="4"
       id="Layer0_1_MEMBER_0_MEMBER_0_MEMBER_0_1_STROKES"
       inkscape:connector-curvature="0"
       style="fill:none;stroke:#ff0000;stroke-width:0.1;stroke-linecap:butt;stroke-linejoin:miter;stroke-miterlimit:4" />
    <path
       d="m 144.35,335.9 q 0,-3.9 -2.8,-6.7 -2.75,-2.8 -6.75,-2.8 -3.95,0 -6.75,2.8 -2.75,2.75 -2.75,6.7 0,4 2.75,6.75 2.9,2.8 6.75,2.8 4,0 6.75,-2.8 2.8,-2.8 2.8,-6.75 z"
       stroke-miterlimit="4"
       id="Layer0_2_MEMBER_0_MEMBER_0_MEMBER_0_1_STROKES"
       inkscape:connector-curvature="0"
       style="fill:none;stroke:#ff0000;stroke-width:0.1;stroke-linecap:butt;stroke-linejoin:miter;stroke-miterlimit:4" />
    <path
       d="m 172.3,335.9 q 0,-3.9 -2.8,-6.7 -2.75,-2.8 -6.75,-2.8 -3.95,0 -6.7,2.8 -2.8,2.75 -2.8,6.7 0,4 2.8,6.75 2.8,2.8 6.7,2.8 4,0 6.75,-2.8 2.8,-2.8 2.8,-6.75 z"
       stroke-miterlimit="4"
       id="Layer0_3_MEMBER_0_1_STROKES"
       inkscape:connector-curvature="0"
       style="fill:none;stroke:#ff0000;stroke-width:0.1;stroke-linecap:butt;stroke-linejoin:miter;stroke-miterlimit:4" />
    <path
       d="m 113.65,329.1 q -2.85,-2.8 -6.8,-2.8 -3.9,0 -6.8,2.8 -2.8,2.8 -2.8,6.8 0,4.1 2.8,6.8 2.8,2.85 6.8,2.85 3.95,0 6.8,-2.85 2.8,-2.8 2.8,-6.8 0,-3.9 -2.8,-6.8 z"
       stroke-miterlimit="4"
       id="Layer0_4_MEMBER_0_MEMBER_0_MEMBER_0_MEMBER_0_1_STROKES"
       inkscape:connector-curvature="0"
       style="fill:none;stroke:#ff0000;stroke-width:0.1;stroke-linecap:butt;stroke-linejoin:miter;stroke-miterlimit:4" />
  </defs>
  <sodipodi:namedview
     id="base"
     pagecolor="#ffffff"
     bordercolor="#666666"
     borderopacity="1.0"
     inkscape:pageopacity="0.0"
     inkscape:pageshadow="2"
     inkscape:zoom="1.979899"
     inkscape:cx="201.62771"
     inkscape:cy="174.73289"
     inkscape:document-units="mm"
     inkscape:current-layer="layer1"
     showgrid="false"
     inkscape:window-width="1920"
     inkscape:window-height="1009"
     inkscape:window-x="-8"
     inkscape:window-y="-8"
     inkscape:window-maximized="1" />
  <metadata
     id="metadata3410">
    <rdf:RDF>
      <cc:Work
         rdf:about="">
        <dc:format>image/svg+xml</dc:format>
        <dc:type
           rdf:resource="http://purl.org/dc/dcmitype/StillImage" />
        <dc:title></dc:title>
      </cc:Work>
    </rdf:RDF>
  </metadata>
  <g
     inkscape:label="Layer 1"
     inkscape:groupmode="layer"
     id="layer1"
     transform="translate(-90.088315,-54.450031)">
    <g
       id="g3479"
       transform="matrix(1.0013333,0,0,1.0013333,0.1685847,-218.46336)">
      <g
         id="g3426">
        <use
           id="use3424"
           xlink:href="#Layer2_0_1_STROKES"
           x="0"
           y="0"
           width="100%"
           height="100%" />
      </g>
      <g
         id="g3430">
        <use
           id="use3428"
           xlink:href="#Layer1_0_1_STROKES"
           x="0"
           y="0"
           width="100%"
           height="100%" />
      </g>
      <g
         id="g3434">
        <use
           id="use3432"
           xlink:href="#Layer0_0_1_STROKES"
           x="0"
           y="0"
           width="100%"
           height="100%" />
      </g>
      <g
         id="g3438">
        <use
           id="use3436"
           xlink:href="#Layer0_1_MEMBER_0_MEMBER_0_MEMBER_0_1_STROKES"
           x="0"
           y="0"
           width="100%"
           height="100%" />
      </g>
      <g
         id="g3442">
        <use
           id="use3440"
           xlink:href="#Layer0_2_MEMBER_0_MEMBER_0_MEMBER_0_1_STROKES"
           x="0"
           y="0"
           width="100%"
           height="100%" />
      </g>
      <g
         id="g3446">
        <use
           id="use3444"
           xlink:href="#Layer0_3_MEMBER_0_1_STROKES"
           x="0"
           y="0"
           width="100%"
           height="100%" />
      </g>
      <g
         id="g3450">
        <use
           id="use3448"
           xlink:href="#Layer0_4_MEMBER_0_MEMBER_0_MEMBER_0_MEMBER_0_1_STROKES"
           x="0"
           y="0"
           width="100%"
           height="100%" />
      </g>
    </g>
  </g>
</svg>
